solid Lapangan2
   facet normal 0.000000e+00 -1.000000e+00 0.000000e+00
      outer loop
         vertex 2.000010e+01 2.380000e+03 4.600000e+02
         vertex 2.000010e+01 2.380000e+03 0.000000e+00
         vertex 1.600000e+03 2.380000e+03 4.600000e+02
      endloop
   endfacet
   facet normal 0.000000e+00 -1.000000e+00 -0.000000e+00
      outer loop
         vertex 1.600000e+03 2.380000e+03 4.600000e+02
         vertex 2.000010e+01 2.380000e+03 0.000000e+00
         vertex 1.600000e+03 2.380000e+03 0.000000e+00
      endloop
   endfacet
   facet normal -0.000000e+00 -1.000000e+00 -0.000000e+00
      outer loop
         vertex 2.400000e+03 0.000000e+00 4.600000e+02
         vertex 0.000000e+00 0.000000e+00 4.600000e+02
         vertex 2.400000e+03 0.000000e+00 0.000000e+00
      endloop
   endfacet
   facet normal 0.000000e+00 -1.000000e+00 0.000000e+00
      outer loop
         vertex 2.400000e+03 0.000000e+00 0.000000e+00
         vertex 0.000000e+00 0.000000e+00 4.600000e+02
         vertex 0.000000e+00 0.000000e+00 0.000000e+00
      endloop
   endfacet
   facet normal 1.000000e+00 0.000000e+00 0.000000e+00
      outer loop
         vertex 2.400000e+03 2.400000e+03 4.600000e+02
         vertex 2.400000e+03 0.000000e+00 4.600000e+02
         vertex 2.400000e+03 2.400000e+03 0.000000e+00
      endloop
   endfacet
   facet normal 1.000000e+00 0.000000e+00 0.000000e+00
      outer loop
         vertex 2.400000e+03 2.400000e+03 0.000000e+00
         vertex 2.400000e+03 0.000000e+00 4.600000e+02
         vertex 2.400000e+03 0.000000e+00 0.000000e+00
      endloop
   endfacet
   facet normal -0.000000e+00 1.000000e+00 0.000000e+00
      outer loop
         vertex 0.000000e+00 2.400000e+03 4.600000e+02
         vertex 2.400000e+03 2.400000e+03 4.600000e+02
         vertex 0.000000e+00 2.400000e+03 0.000000e+00
      endloop
   endfacet
   facet normal 0.000000e+00 1.000000e+00 0.000000e+00
      outer loop
         vertex 0.000000e+00 2.400000e+03 0.000000e+00
         vertex 2.400000e+03 2.400000e+03 4.600000e+02
         vertex 2.400000e+03 2.400000e+03 0.000000e+00
      endloop
   endfacet
   facet normal -1.000000e+00 0.000000e+00 0.000000e+00
      outer loop
         vertex 2.380000e+03 2.000010e+01 4.600000e+02
         vertex 2.380000e+03 2.380000e+03 4.600000e+02
         vertex 2.380000e+03 2.000010e+01 0.000000e+00
      endloop
   endfacet
   facet normal -1.000000e+00 0.000000e+00 0.000000e+00
      outer loop
         vertex 2.380000e+03 2.000010e+01 0.000000e+00
         vertex 2.380000e+03 2.380000e+03 4.600000e+02
         vertex 2.380000e+03 2.380000e+03 0.000000e+00
      endloop
   endfacet
   facet normal -0.000000e+00 1.000000e+00 0.000000e+00
      outer loop
         vertex 2.000010e+01 2.000010e+01 4.600000e+02
         vertex 2.380000e+03 2.000010e+01 4.600000e+02
         vertex 2.000010e+01 2.000010e+01 0.000000e+00
      endloop
   endfacet
   facet normal 0.000000e+00 1.000000e+00 0.000000e+00
      outer loop
         vertex 2.000010e+01 2.000010e+01 0.000000e+00
         vertex 2.380000e+03 2.000010e+01 4.600000e+02
         vertex 2.380000e+03 2.000010e+01 0.000000e+00
      endloop
   endfacet
   facet normal 1.000000e+00 0.000000e+00 0.000000e+00
      outer loop
         vertex 2.000010e+01 1.790000e+03 4.600000e+02
         vertex 2.000010e+01 2.000010e+01 4.600000e+02
         vertex 2.000010e+01 1.790000e+03 0.000000e+00
      endloop
   endfacet
   facet normal 1.000000e+00 0.000000e+00 0.000000e+00
      outer loop
         vertex 2.000010e+01 1.790000e+03 0.000000e+00
         vertex 2.000010e+01 2.000010e+01 4.600000e+02
         vertex 2.000010e+01 2.000010e+01 0.000000e+00
      endloop
   endfacet
   facet normal -0.000000e+00 -1.000000e+00 -0.000000e+00
      outer loop
         vertex 5.400000e+02 1.790000e+03 4.600000e+02
         vertex 2.000010e+01 1.790000e+03 4.600000e+02
         vertex 5.400000e+02 1.790000e+03 0.000000e+00
      endloop
   endfacet
   facet normal 0.000000e+00 -1.000000e+00 0.000000e+00
      outer loop
         vertex 5.400000e+02 1.790000e+03 0.000000e+00
         vertex 2.000010e+01 1.790000e+03 4.600000e+02
         vertex 2.000010e+01 1.790000e+03 0.000000e+00
      endloop
   endfacet
   facet normal 1.000000e+00 0.000000e+00 0.000000e+00
      outer loop
         vertex 5.400000e+02 1.870000e+03 4.600000e+02
         vertex 5.400000e+02 1.790000e+03 4.600000e+02
         vertex 5.400000e+02 1.870000e+03 0.000000e+00
      endloop
   endfacet
   facet normal 1.000000e+00 0.000000e+00 0.000000e+00
      outer loop
         vertex 5.400000e+02 1.870000e+03 0.000000e+00
         vertex 5.400000e+02 1.790000e+03 4.600000e+02
         vertex 5.400000e+02 1.790000e+03 0.000000e+00
      endloop
   endfacet
   facet normal -0.000000e+00 1.000000e+00 0.000000e+00
      outer loop
         vertex 2.000010e+01 1.870000e+03 4.600000e+02
         vertex 5.400000e+02 1.870000e+03 4.600000e+02
         vertex 2.000010e+01 1.870000e+03 0.000000e+00
      endloop
   endfacet
   facet normal 0.000000e+00 1.000000e+00 0.000000e+00
      outer loop
         vertex 2.000010e+01 1.870000e+03 0.000000e+00
         vertex 5.400000e+02 1.870000e+03 4.600000e+02
         vertex 5.400000e+02 1.870000e+03 0.000000e+00
      endloop
   endfacet
   facet normal 1.000000e+00 0.000000e+00 0.000000e+00
      outer loop
         vertex 2.000010e+01 2.380000e+03 4.600000e+02
         vertex 2.000010e+01 1.870000e+03 4.600000e+02
         vertex 2.000010e+01 2.380000e+03 0.000000e+00
      endloop
   endfacet
   facet normal 1.000000e+00 0.000000e+00 0.000000e+00
      outer loop
         vertex 2.000010e+01 2.380000e+03 0.000000e+00
         vertex 2.000010e+01 1.870000e+03 4.600000e+02
         vertex 2.000010e+01 1.870000e+03 0.000000e+00
      endloop
   endfacet
   facet normal 0.000000e+00 -1.000000e+00 0.000000e+00
      outer loop
         vertex 1.680000e+03 2.380000e+03 0.000000e+00
         vertex 2.380000e+03 2.380000e+03 0.000000e+00
         vertex 1.680000e+03 2.380000e+03 4.600000e+02
      endloop
   endfacet
   facet normal 0.000000e+00 -1.000000e+00 0.000000e+00
      outer loop
         vertex 1.680000e+03 2.380000e+03 4.600000e+02
         vertex 2.380000e+03 2.380000e+03 0.000000e+00
         vertex 2.380000e+03 2.380000e+03 4.600000e+02
      endloop
   endfacet
   facet normal -1.000000e+00 0.000000e+00 0.000000e+00
      outer loop
         vertex 0.000000e+00 0.000000e+00 4.600000e+02
         vertex 0.000000e+00 2.400000e+03 4.600000e+02
         vertex 0.000000e+00 0.000000e+00 0.000000e+00
      endloop
   endfacet
   facet normal -1.000000e+00 0.000000e+00 0.000000e+00
      outer loop
         vertex 0.000000e+00 0.000000e+00 0.000000e+00
         vertex 0.000000e+00 2.400000e+03 4.600000e+02
         vertex 0.000000e+00 2.400000e+03 0.000000e+00
      endloop
   endfacet
   facet normal 0.000000e+00 0.000000e+00 1.000000e+00
      outer loop
         vertex 2.000010e+01 1.790000e+03 4.600000e+02
         vertex 0.000000e+00 2.400000e+03 4.600000e+02
         vertex 0.000000e+00 0.000000e+00 4.600000e+02
      endloop
   endfacet
   facet normal 0.000000e+00 -0.000000e+00 1.000000e+00
      outer loop
         vertex 1.600000e+03 2.380000e+03 4.600000e+02
         vertex 2.400000e+03 2.400000e+03 4.600000e+02
         vertex 0.000000e+00 2.400000e+03 4.600000e+02
      endloop
   endfacet
   facet normal 0.000000e+00 -0.000000e+00 1.000000e+00
      outer loop
         vertex 5.400000e+02 1.790000e+03 4.600000e+02
         vertex 5.400000e+02 1.870000e+03 4.600000e+02
         vertex 2.000010e+01 1.790000e+03 4.600000e+02
      endloop
   endfacet
   facet normal 0.000000e+00 0.000000e+00 1.000000e+00
      outer loop
         vertex 2.000010e+01 1.790000e+03 4.600000e+02
         vertex 5.400000e+02 1.870000e+03 4.600000e+02
         vertex 2.000010e+01 1.870000e+03 4.600000e+02
      endloop
   endfacet
   facet normal 0.000000e+00 -0.000000e+00 1.000000e+00
      outer loop
         vertex 2.000010e+01 1.790000e+03 4.600000e+02
         vertex 2.000010e+01 1.870000e+03 4.600000e+02
         vertex 0.000000e+00 2.400000e+03 4.600000e+02
      endloop
   endfacet
   facet normal 0.000000e+00 0.000000e+00 1.000000e+00
      outer loop
         vertex 0.000000e+00 2.400000e+03 4.600000e+02
         vertex 2.000010e+01 1.870000e+03 4.600000e+02
         vertex 2.000010e+01 2.380000e+03 4.600000e+02
      endloop
   endfacet
   facet normal 0.000000e+00 0.000000e+00 1.000000e+00
      outer loop
         vertex 0.000000e+00 2.400000e+03 4.600000e+02
         vertex 2.000010e+01 2.380000e+03 4.600000e+02
         vertex 1.600000e+03 2.380000e+03 4.600000e+02
      endloop
   endfacet
   facet normal 0.000000e+00 0.000000e+00 1.000000e+00
      outer loop
         vertex 1.600000e+03 1.860000e+03 4.600000e+02
         vertex 1.680000e+03 1.860000e+03 4.600000e+02
         vertex 1.600000e+03 2.380000e+03 4.600000e+02
      endloop
   endfacet
   facet normal -0.000000e+00 0.000000e+00 1.000000e+00
      outer loop
         vertex 1.600000e+03 2.380000e+03 4.600000e+02
         vertex 1.680000e+03 1.860000e+03 4.600000e+02
         vertex 1.680000e+03 2.380000e+03 4.600000e+02
      endloop
   endfacet
   facet normal 0.000000e+00 0.000000e+00 1.000000e+00
      outer loop
         vertex 1.600000e+03 2.380000e+03 4.600000e+02
         vertex 1.680000e+03 2.380000e+03 4.600000e+02
         vertex 2.400000e+03 2.400000e+03 4.600000e+02
      endloop
   endfacet
   facet normal 0.000000e+00 0.000000e+00 1.000000e+00
      outer loop
         vertex 2.400000e+03 2.400000e+03 4.600000e+02
         vertex 1.680000e+03 2.380000e+03 4.600000e+02
         vertex 2.380000e+03 2.380000e+03 4.600000e+02
      endloop
   endfacet
   facet normal 0.000000e+00 0.000000e+00 1.000000e+00
      outer loop
         vertex 2.400000e+03 2.400000e+03 4.600000e+02
         vertex 2.380000e+03 2.380000e+03 4.600000e+02
         vertex 2.400000e+03 0.000000e+00 4.600000e+02
      endloop
   endfacet
   facet normal 0.000000e+00 0.000000e+00 1.000000e+00
      outer loop
         vertex 2.400000e+03 0.000000e+00 4.600000e+02
         vertex 2.380000e+03 2.380000e+03 4.600000e+02
         vertex 2.380000e+03 2.000010e+01 4.600000e+02
      endloop
   endfacet
   facet normal 0.000000e+00 0.000000e+00 1.000000e+00
      outer loop
         vertex 2.400000e+03 0.000000e+00 4.600000e+02
         vertex 2.380000e+03 2.000010e+01 4.600000e+02
         vertex 0.000000e+00 0.000000e+00 4.600000e+02
      endloop
   endfacet
   facet normal 0.000000e+00 0.000000e+00 1.000000e+00
      outer loop
         vertex 0.000000e+00 0.000000e+00 4.600000e+02
         vertex 2.380000e+03 2.000010e+01 4.600000e+02
         vertex 2.000010e+01 2.000010e+01 4.600000e+02
      endloop
   endfacet
   facet normal 0.000000e+00 0.000000e+00 1.000000e+00
      outer loop
         vertex 0.000000e+00 0.000000e+00 4.600000e+02
         vertex 2.000010e+01 2.000010e+01 4.600000e+02
         vertex 2.000010e+01 1.790000e+03 4.600000e+02
      endloop
   endfacet
   facet normal -0.000000e+00 0.000000e+00 -1.000000e+00
      outer loop
         vertex 2.000010e+01 1.870000e+03 0.000000e+00
         vertex 0.000000e+00 0.000000e+00 0.000000e+00
         vertex 0.000000e+00 2.400000e+03 0.000000e+00
      endloop
   endfacet
   facet normal 0.000000e+00 0.000000e+00 -1.000000e+00
      outer loop
         vertex 1.680000e+03 2.380000e+03 0.000000e+00
         vertex 0.000000e+00 2.400000e+03 0.000000e+00
         vertex 2.400000e+03 2.400000e+03 0.000000e+00
      endloop
   endfacet
   facet normal 0.000000e+00 0.000000e+00 -1.000000e+00
      outer loop
         vertex 1.680000e+03 1.860000e+03 0.000000e+00
         vertex 1.600000e+03 1.860000e+03 0.000000e+00
         vertex 1.680000e+03 2.380000e+03 0.000000e+00
      endloop
   endfacet
   facet normal -0.000000e+00 0.000000e+00 -1.000000e+00
      outer loop
         vertex 1.680000e+03 2.380000e+03 0.000000e+00
         vertex 1.600000e+03 1.860000e+03 0.000000e+00
         vertex 1.600000e+03 2.380000e+03 0.000000e+00
      endloop
   endfacet
   facet normal 0.000000e+00 0.000000e+00 -1.000000e+00
      outer loop
         vertex 1.680000e+03 2.380000e+03 0.000000e+00
         vertex 1.600000e+03 2.380000e+03 0.000000e+00
         vertex 0.000000e+00 2.400000e+03 0.000000e+00
      endloop
   endfacet
   facet normal 0.000000e+00 0.000000e+00 -1.000000e+00
      outer loop
         vertex 0.000000e+00 2.400000e+03 0.000000e+00
         vertex 1.600000e+03 2.380000e+03 0.000000e+00
         vertex 2.000010e+01 2.380000e+03 0.000000e+00
      endloop
   endfacet
   facet normal 0.000000e+00 0.000000e+00 -1.000000e+00
      outer loop
         vertex 0.000000e+00 2.400000e+03 0.000000e+00
         vertex 2.000010e+01 2.380000e+03 0.000000e+00
         vertex 2.000010e+01 1.870000e+03 0.000000e+00
      endloop
   endfacet
   facet normal -0.000000e+00 -0.000000e+00 -1.000000e+00
      outer loop
         vertex 5.400000e+02 1.870000e+03 0.000000e+00
         vertex 5.400000e+02 1.790000e+03 0.000000e+00
         vertex 2.000010e+01 1.870000e+03 0.000000e+00
      endloop
   endfacet
   facet normal 0.000000e+00 0.000000e+00 -1.000000e+00
      outer loop
         vertex 2.000010e+01 1.870000e+03 0.000000e+00
         vertex 5.400000e+02 1.790000e+03 0.000000e+00
         vertex 2.000010e+01 1.790000e+03 0.000000e+00
      endloop
   endfacet
   facet normal 0.000000e+00 -0.000000e+00 -1.000000e+00
      outer loop
         vertex 2.000010e+01 1.870000e+03 0.000000e+00
         vertex 2.000010e+01 1.790000e+03 0.000000e+00
         vertex 0.000000e+00 0.000000e+00 0.000000e+00
      endloop
   endfacet
   facet normal 0.000000e+00 0.000000e+00 -1.000000e+00
      outer loop
         vertex 0.000000e+00 0.000000e+00 0.000000e+00
         vertex 2.000010e+01 1.790000e+03 0.000000e+00
         vertex 2.000010e+01 2.000010e+01 0.000000e+00
      endloop
   endfacet
   facet normal 0.000000e+00 0.000000e+00 -1.000000e+00
      outer loop
         vertex 0.000000e+00 0.000000e+00 0.000000e+00
         vertex 2.000010e+01 2.000010e+01 0.000000e+00
         vertex 2.400000e+03 0.000000e+00 0.000000e+00
      endloop
   endfacet
   facet normal 0.000000e+00 0.000000e+00 -1.000000e+00
      outer loop
         vertex 2.400000e+03 0.000000e+00 0.000000e+00
         vertex 2.000010e+01 2.000010e+01 0.000000e+00
         vertex 2.380000e+03 2.000010e+01 0.000000e+00
      endloop
   endfacet
   facet normal 0.000000e+00 0.000000e+00 -1.000000e+00
      outer loop
         vertex 2.400000e+03 0.000000e+00 0.000000e+00
         vertex 2.380000e+03 2.000010e+01 0.000000e+00
         vertex 2.400000e+03 2.400000e+03 0.000000e+00
      endloop
   endfacet
   facet normal 0.000000e+00 0.000000e+00 -1.000000e+00
      outer loop
         vertex 2.400000e+03 2.400000e+03 0.000000e+00
         vertex 2.380000e+03 2.000010e+01 0.000000e+00
         vertex 2.380000e+03 2.380000e+03 0.000000e+00
      endloop
   endfacet
   facet normal 0.000000e+00 0.000000e+00 -1.000000e+00
      outer loop
         vertex 2.400000e+03 2.400000e+03 0.000000e+00
         vertex 2.380000e+03 2.380000e+03 0.000000e+00
         vertex 1.680000e+03 2.380000e+03 0.000000e+00
      endloop
   endfacet
   facet normal -1.000000e+00 0.000000e+00 0.000000e+00
      outer loop
         vertex 1.600000e+03 1.860000e+03 4.600000e+02
         vertex 1.600000e+03 2.380000e+03 4.600000e+02
         vertex 1.600000e+03 1.860000e+03 0.000000e+00
      endloop
   endfacet
   facet normal -1.000000e+00 0.000000e+00 0.000000e+00
      outer loop
         vertex 1.600000e+03 1.860000e+03 0.000000e+00
         vertex 1.600000e+03 2.380000e+03 4.600000e+02
         vertex 1.600000e+03 2.380000e+03 0.000000e+00
      endloop
   endfacet
   facet normal -0.000000e+00 -1.000000e+00 -0.000000e+00
      outer loop
         vertex 1.680000e+03 1.860000e+03 4.600000e+02
         vertex 1.600000e+03 1.860000e+03 4.600000e+02
         vertex 1.680000e+03 1.860000e+03 0.000000e+00
      endloop
   endfacet
   facet normal 0.000000e+00 -1.000000e+00 0.000000e+00
      outer loop
         vertex 1.680000e+03 1.860000e+03 0.000000e+00
         vertex 1.600000e+03 1.860000e+03 4.600000e+02
         vertex 1.600000e+03 1.860000e+03 0.000000e+00
      endloop
   endfacet
   facet normal 1.000000e+00 0.000000e+00 0.000000e+00
      outer loop
         vertex 1.680000e+03 2.380000e+03 4.600000e+02
         vertex 1.680000e+03 1.860000e+03 4.600000e+02
         vertex 1.680000e+03 2.380000e+03 0.000000e+00
      endloop
   endfacet
   facet normal 1.000000e+00 0.000000e+00 0.000000e+00
      outer loop
         vertex 1.680000e+03 2.380000e+03 0.000000e+00
         vertex 1.680000e+03 1.860000e+03 4.600000e+02
         vertex 1.680000e+03 1.860000e+03 0.000000e+00
      endloop
   endfacet
   facet normal -0.000000e+00 -1.000000e+00 -0.000000e+00
      outer loop
         vertex 1.730000e+03 6.200001e+02 4.600000e+02
         vertex 1.650000e+03 6.200001e+02 4.600000e+02
         vertex 1.730000e+03 6.200001e+02 0.000000e+00
      endloop
   endfacet
   facet normal 0.000000e+00 -1.000000e+00 0.000000e+00
      outer loop
         vertex 1.730000e+03 6.200001e+02 0.000000e+00
         vertex 1.650000e+03 6.200001e+02 4.600000e+02
         vertex 1.650000e+03 6.200001e+02 0.000000e+00
      endloop
   endfacet
   facet normal 1.000000e+00 0.000000e+00 0.000000e+00
      outer loop
         vertex 1.730000e+03 1.140000e+03 4.600000e+02
         vertex 1.730000e+03 6.200001e+02 4.600000e+02
         vertex 1.730000e+03 1.140000e+03 0.000000e+00
      endloop
   endfacet
   facet normal 1.000000e+00 0.000000e+00 0.000000e+00
      outer loop
         vertex 1.730000e+03 1.140000e+03 0.000000e+00
         vertex 1.730000e+03 6.200001e+02 4.600000e+02
         vertex 1.730000e+03 6.200001e+02 0.000000e+00
      endloop
   endfacet
   facet normal 0.000000e+00 0.000000e+00 1.000000e+00
      outer loop
         vertex 1.650000e+03 6.200001e+02 4.600000e+02
         vertex 1.730000e+03 6.200001e+02 4.600000e+02
         vertex 1.650000e+03 1.060000e+03 4.600000e+02
      endloop
   endfacet
   facet normal -0.000000e+00 0.000000e+00 1.000000e+00
      outer loop
         vertex 1.650000e+03 1.060000e+03 4.600000e+02
         vertex 1.730000e+03 6.200001e+02 4.600000e+02
         vertex 1.730000e+03 1.140000e+03 4.600000e+02
      endloop
   endfacet
   facet normal 0.000000e+00 -0.000000e+00 1.000000e+00
      outer loop
         vertex 1.650000e+03 1.060000e+03 4.600000e+02
         vertex 1.730000e+03 1.140000e+03 4.600000e+02
         vertex 8.700000e+02 1.060000e+03 4.600000e+02
      endloop
   endfacet
   facet normal 0.000000e+00 -0.000000e+00 1.000000e+00
      outer loop
         vertex 8.700000e+02 1.060000e+03 4.600000e+02
         vertex 1.730000e+03 1.140000e+03 4.600000e+02
         vertex 7.900001e+02 1.140000e+03 4.600000e+02
      endloop
   endfacet
   facet normal 0.000000e+00 0.000000e+00 1.000000e+00
      outer loop
         vertex 8.700000e+02 1.060000e+03 4.600000e+02
         vertex 7.900001e+02 1.140000e+03 4.600000e+02
         vertex 8.700000e+02 6.200001e+02 4.600000e+02
      endloop
   endfacet
   facet normal 0.000000e+00 0.000000e+00 1.000000e+00
      outer loop
         vertex 8.700000e+02 6.200001e+02 4.600000e+02
         vertex 7.900001e+02 1.140000e+03 4.600000e+02
         vertex 7.900001e+02 6.200001e+02 4.600000e+02
      endloop
   endfacet
   facet normal -1.000000e+00 0.000000e+00 0.000000e+00
      outer loop
         vertex 1.650000e+03 6.200001e+02 4.600000e+02
         vertex 1.650000e+03 1.060000e+03 4.600000e+02
         vertex 1.650000e+03 6.200001e+02 0.000000e+00
      endloop
   endfacet
   facet normal -1.000000e+00 0.000000e+00 0.000000e+00
      outer loop
         vertex 1.650000e+03 6.200001e+02 0.000000e+00
         vertex 1.650000e+03 1.060000e+03 4.600000e+02
         vertex 1.650000e+03 1.060000e+03 0.000000e+00
      endloop
   endfacet
   facet normal 0.000000e+00 0.000000e+00 -1.000000e+00
      outer loop
         vertex 8.700000e+02 6.200001e+02 0.000000e+00
         vertex 7.900001e+02 6.200001e+02 0.000000e+00
         vertex 8.700000e+02 1.060000e+03 0.000000e+00
      endloop
   endfacet
   facet normal -0.000000e+00 0.000000e+00 -1.000000e+00
      outer loop
         vertex 8.700000e+02 1.060000e+03 0.000000e+00
         vertex 7.900001e+02 6.200001e+02 0.000000e+00
         vertex 7.900001e+02 1.140000e+03 0.000000e+00
      endloop
   endfacet
   facet normal 0.000000e+00 0.000000e+00 -1.000000e+00
      outer loop
         vertex 8.700000e+02 1.060000e+03 0.000000e+00
         vertex 7.900001e+02 1.140000e+03 0.000000e+00
         vertex 1.650000e+03 1.060000e+03 0.000000e+00
      endloop
   endfacet
   facet normal 0.000000e+00 0.000000e+00 -1.000000e+00
      outer loop
         vertex 1.650000e+03 1.060000e+03 0.000000e+00
         vertex 7.900001e+02 1.140000e+03 0.000000e+00
         vertex 1.730000e+03 1.140000e+03 0.000000e+00
      endloop
   endfacet
   facet normal 0.000000e+00 0.000000e+00 -1.000000e+00
      outer loop
         vertex 1.650000e+03 1.060000e+03 0.000000e+00
         vertex 1.730000e+03 1.140000e+03 0.000000e+00
         vertex 1.650000e+03 6.200001e+02 0.000000e+00
      endloop
   endfacet
   facet normal 0.000000e+00 0.000000e+00 -1.000000e+00
      outer loop
         vertex 1.650000e+03 6.200001e+02 0.000000e+00
         vertex 1.730000e+03 1.140000e+03 0.000000e+00
         vertex 1.730000e+03 6.200001e+02 0.000000e+00
      endloop
   endfacet
   facet normal -0.000000e+00 -1.000000e+00 -0.000000e+00
      outer loop
         vertex 1.650000e+03 1.060000e+03 4.600000e+02
         vertex 8.700000e+02 1.060000e+03 4.600000e+02
         vertex 1.650000e+03 1.060000e+03 0.000000e+00
      endloop
   endfacet
   facet normal 0.000000e+00 -1.000000e+00 0.000000e+00
      outer loop
         vertex 1.650000e+03 1.060000e+03 0.000000e+00
         vertex 8.700000e+02 1.060000e+03 4.600000e+02
         vertex 8.700000e+02 1.060000e+03 0.000000e+00
      endloop
   endfacet
   facet normal 0.000000e+00 1.000000e+00 0.000000e+00
      outer loop
         vertex 7.900001e+02 1.140000e+03 0.000000e+00
         vertex 7.900001e+02 1.140000e+03 4.600000e+02
         vertex 1.730000e+03 1.140000e+03 0.000000e+00
      endloop
   endfacet
   facet normal 0.000000e+00 1.000000e+00 -0.000000e+00
      outer loop
         vertex 1.730000e+03 1.140000e+03 0.000000e+00
         vertex 7.900001e+02 1.140000e+03 4.600000e+02
         vertex 1.730000e+03 1.140000e+03 4.600000e+02
      endloop
   endfacet
   facet normal -1.000000e+00 0.000000e+00 0.000000e+00
      outer loop
         vertex 7.900001e+02 6.200001e+02 4.600000e+02
         vertex 7.900001e+02 1.140000e+03 4.600000e+02
         vertex 7.900001e+02 6.200001e+02 0.000000e+00
      endloop
   endfacet
   facet normal -1.000000e+00 0.000000e+00 0.000000e+00
      outer loop
         vertex 7.900001e+02 6.200001e+02 0.000000e+00
         vertex 7.900001e+02 1.140000e+03 4.600000e+02
         vertex 7.900001e+02 1.140000e+03 0.000000e+00
      endloop
   endfacet
   facet normal -0.000000e+00 -1.000000e+00 -0.000000e+00
      outer loop
         vertex 8.700000e+02 6.200001e+02 4.600000e+02
         vertex 7.900001e+02 6.200001e+02 4.600000e+02
         vertex 8.700000e+02 6.200001e+02 0.000000e+00
      endloop
   endfacet
   facet normal 0.000000e+00 -1.000000e+00 0.000000e+00
      outer loop
         vertex 8.700000e+02 6.200001e+02 0.000000e+00
         vertex 7.900001e+02 6.200001e+02 4.600000e+02
         vertex 7.900001e+02 6.200001e+02 0.000000e+00
      endloop
   endfacet
   facet normal 1.000000e+00 -0.000000e+00 0.000000e+00
      outer loop
         vertex 8.700000e+02 6.200001e+02 4.600000e+02
         vertex 8.700000e+02 6.200001e+02 0.000000e+00
         vertex 8.700000e+02 1.060000e+03 4.600000e+02
      endloop
   endfacet
   facet normal 1.000000e+00 0.000000e+00 0.000000e+00
      outer loop
         vertex 8.700000e+02 1.060000e+03 4.600000e+02
         vertex 8.700000e+02 6.200001e+02 0.000000e+00
         vertex 8.700000e+02 1.060000e+03 0.000000e+00
      endloop
   endfacet
endsolid